# xmcd CD database file
#
# Track frame offsets:
#	150
#	23530
#	43925
#	78457
#
# Disc length: 1337 seconds
#
# Revision: 0
# Processed by: cddbd v1.5.1PL0 Copyright (c) Steve Scherf et al.
# Submitted via: CDex 1.51
#
DISCID=26053704
DTITLE=a.mia - あなただけを
DYEAR=2003
DGENRE=JPop
TTITLE0=あなただけを
TTITLE1=情熱の果実 (featuring Lady Q)
TTITLE2=あなただけを ''Remixed by meltt''
TTITLE3=情熱の果実 (featuring Lady Q) ''Home Grown Mix''
EXTD=YEAR: 2003
EXTT0=
EXTT1=
EXTT2=
EXTT3=
PLAYORDER=
